<svg xmlns="http://www.w3.org/2000/svg" width="10mm" height="10mm" viewBox="0 0 10 10"><defs><linearGradient id="gw" x1="0" y1="0" x2="0" y2="1"><stop offset="0" stop-color="#ffffff"/><stop offset="1" stop-color="#d6dbe0"/></linearGradient><linearGradient id="gb" x1="0" y1="0" x2="0" y2="1"><stop offset="0" stop-color="#5c5c5c"/><stop offset="1" stop-color="#0a0a0a"/></linearGradient><filter id="ds" x="-40%" y="-40%" width="180%" height="180%"><feDropShadow dx="0" dy="0.12" stdDeviation="0.09" flood-color="#000" flood-opacity="0.4"/></filter></defs><g style="fill:#fff;fill-opacity:1" filter="url(#ds)"><g style="fill:#fff;fill-opacity:1;stroke-width:.09651081;stroke-miterlimit:4;stroke-dasharray:none"><path d="M6.542 294.178c1.078 0 1.125.858 1.125 1.495H2.069c0-.65.046-1.495 1.124-1.495z" style="fill:url(#gw);fill-opacity:1;stroke:#000;stroke-width:.38604325;stroke-linecap:butt;stroke-linejoin:miter;stroke-miterlimit:4;stroke-dasharray:none;stroke-opacity:1" transform="matrix(1.07361 0 0 1 -.233 -286.97)"/><path d="m6.74 294.177-.567-3.253H3.569l-.561 3.253z" style="fill:url(#gw);fill-opacity:1;stroke:#000;stroke-width:.38604325;stroke-linecap:butt;stroke-linejoin:miter;stroke-opacity:1;stroke-miterlimit:4;stroke-dasharray:none" transform="matrix(1.07361 0 0 1 -.233 -286.97)"/><path d="m6.66 289.342-.8-.222-.173.439-.328-.002v-.624l-1.002.017v.607h-.292l-.21-.436-.784.307s-.008 1.53.404 1.521h2.781c.412 0 .404-1.606.404-1.606z" style="fill:url(#gw);fill-opacity:1;stroke:#000;stroke-width:.38604325;stroke-linecap:butt;stroke-linejoin:miter;stroke-opacity:1;stroke-miterlimit:4;stroke-dasharray:none" transform="matrix(1.07361 0 0 1 -.233 -286.97)"/></g></g></svg>